<?xml version="1.0" encoding="UTF-8"?>
<svg width="30" height="30" version="1.1" viewBox="0 0 700 700" xmlns="http://www.w3.org/2000/svg" xmlns:xlink="http://www.w3.org/1999/xlink" style="fill: #1c5f42">
 <defs>
  <symbol id="x" overflow="visible">
   <path d="m0.46875-0.03125c-0.023438 0.011719-0.046875 0.023438-0.078125 0.03125s-0.0625 0.015625-0.09375 0.015625c-0.074219 0-0.13672-0.019531-0.1875-0.0625-0.054688-0.050781-0.078125-0.11719-0.078125-0.20312 0-0.082031 0.023438-0.14453 0.078125-0.1875 0.050781-0.050781 0.11328-0.078125 0.1875-0.078125 0.03125 0 0.0625 0.007813 0.09375 0.015625 0.03125 0 0.054687 0.007812 0.078125 0.015625v0.10938c-0.023438-0.019531-0.046875-0.03125-0.078125-0.03125-0.023437-0.007812-0.046875-0.015625-0.078125-0.015625-0.042969 0-0.078125 0.015625-0.10938 0.046875-0.023437 0.03125-0.03125 0.074219-0.03125 0.125 0 0.054688 0.007813 0.09375 0.03125 0.125 0.03125 0.023438 0.066406 0.03125 0.10938 0.03125h0.078125c0.03125-0.007812 0.054687-0.019531 0.078125-0.03125z"/>
  </symbol>
  <symbol id="e" overflow="visible">
   <path d="m0.32812-0.26562c0-0.007813-0.007813-0.015625-0.015625-0.015625-0.011719-0.007812-0.023438-0.015625-0.03125-0.015625-0.03125 0-0.058594 0.011719-0.078125 0.03125-0.011719 0.023437-0.015625 0.054687-0.015625 0.09375v0.17188h-0.14062v-0.375h0.14062v0.0625c0.007812-0.03125 0.023438-0.050781 0.046875-0.0625 0.019531-0.007812 0.039063-0.015625 0.0625-0.015625h0.015625 0.015625z"/>
  </symbol>
  <symbol id="d" overflow="visible">
   <path d="m0.4375-0.1875v0.03125h-0.28125c0 0.03125 0.003906 0.054688 0.015625 0.0625 0.019531 0.011719 0.050781 0.015625 0.09375 0.015625h0.0625c0.03125-0.0078125 0.0625-0.023437 0.09375-0.046875v0.10938c-0.03125 0-0.0625 0.0078125-0.09375 0.015625-0.023437 0.0078125-0.046875 0.015625-0.078125 0.015625-0.074219 0-0.13281-0.015625-0.17188-0.046875-0.03125-0.039062-0.046875-0.09375-0.046875-0.15625s0.015625-0.10938 0.046875-0.14062c0.039063-0.039063 0.09375-0.0625 0.15625-0.0625s0.10938 0.023437 0.14062 0.0625c0.039062 0.03125 0.0625 0.078125 0.0625 0.14062zm-0.125-0.046875c0-0.019531-0.011719-0.035156-0.03125-0.046875-0.011719-0.007812-0.027344-0.015625-0.046875-0.015625-0.023437 0-0.042969 0.007813-0.0625 0.015625-0.011719 0.011719-0.015625 0.027344-0.015625 0.046875z"/>
  </symbol>
  <symbol id="c" overflow="visible">
   <path d="m0.23438-0.17188c-0.03125 0-0.054687 0.007813-0.0625 0.015625-0.011719 0.011719-0.015625 0.023438-0.015625 0.03125 0 0.023438 0.003906 0.039062 0.015625 0.046875h0.03125c0.03125 0 0.050781-0.0039062 0.0625-0.015625 0.019531-0.019531 0.03125-0.039062 0.03125-0.0625v-0.015625zm0.17188-0.046875v0.21875h-0.10938v-0.046875c-0.023437 0.023438-0.042969 0.039062-0.0625 0.046875-0.023437 0.0078125-0.046875 0.015625-0.078125 0.015625s-0.0625-0.011719-0.09375-0.03125c-0.023438-0.019531-0.03125-0.054688-0.03125-0.10938 0-0.039062 0.015625-0.066406 0.046875-0.078125 0.03125-0.019531 0.078125-0.03125 0.14062-0.03125h0.078125v-0.015625c0-0.019531-0.011719-0.03125-0.03125-0.03125-0.011719-0.007812-0.039063-0.015625-0.078125-0.015625h-0.0625c-0.023438 0-0.042969 0.007813-0.0625 0.015625v-0.09375h0.078125c0.03125-0.007812 0.054687-0.015625 0.078125-0.015625 0.070312 0 0.11719 0.015625 0.14062 0.046875 0.03125 0.03125 0.046875 0.074219 0.046875 0.125z"/>
  </symbol>
  <symbol id="b" overflow="visible">
   <path d="m0.1875-0.48438v0.10938h0.125v0.078125h-0.125v0.17188c0 0.011719 0.003906 0.023438 0.015625 0.03125h0.03125 0.0625v0.09375h-0.09375c-0.054687 0-0.089844-0.0078125-0.10938-0.03125-0.023438-0.019531-0.03125-0.050781-0.03125-0.09375v-0.17188h-0.046875v-0.078125h0.046875v-0.10938z"/>
  </symbol>
  <symbol id="n" overflow="visible">
   <path d="m0.3125-0.32812v-0.20312h0.125v0.53125h-0.125v-0.046875c-0.011719 0.023438-0.027344 0.039062-0.046875 0.046875-0.023437 0.0078125-0.046875 0.015625-0.078125 0.015625-0.042969 0-0.078125-0.015625-0.10938-0.046875-0.03125-0.039062-0.046875-0.09375-0.046875-0.15625s0.015625-0.10938 0.046875-0.14062c0.03125-0.039063 0.066406-0.0625 0.10938-0.0625 0.03125 0 0.054688 0.007813 0.078125 0.015625 0.019531 0.011719 0.035156 0.027344 0.046875 0.046875zm-0.078125 0.25c0.019531 0 0.035156-0.0039062 0.046875-0.015625 0.019531-0.019531 0.03125-0.050781 0.03125-0.09375 0-0.03125-0.011719-0.054688-0.03125-0.078125-0.011719-0.019531-0.027344-0.03125-0.046875-0.03125-0.03125 0-0.054687 0.011719-0.0625 0.03125-0.011719 0.023437-0.015625 0.046875-0.015625 0.078125 0 0.042969 0.003906 0.074219 0.015625 0.09375 0.007813 0.011719 0.03125 0.015625 0.0625 0.015625z"/>
  </symbol>
  <symbol id="m" overflow="visible">
   <path d="m0.26562-0.078125c0.019531 0 0.035156-0.0039062 0.046875-0.015625 0.007812-0.019531 0.015625-0.050781 0.015625-0.09375 0-0.03125-0.007813-0.054688-0.015625-0.078125-0.011719-0.019531-0.027344-0.03125-0.046875-0.03125-0.03125 0-0.054687 0.011719-0.0625 0.03125-0.011719 0.023437-0.015625 0.046875-0.015625 0.078125s0.003906 0.058594 0.015625 0.078125c0.007813 0.023438 0.03125 0.03125 0.0625 0.03125zm-0.078125-0.25c0.007812-0.019531 0.023438-0.035156 0.046875-0.046875 0.019531-0.007812 0.039063-0.015625 0.0625-0.015625 0.050781 0 0.09375 0.023437 0.125 0.0625 0.03125 0.03125 0.046875 0.078125 0.046875 0.14062s-0.015625 0.11719-0.046875 0.15625c-0.03125 0.03125-0.074219 0.046875-0.125 0.046875-0.023437 0-0.042969-0.0078125-0.0625-0.015625-0.023437-0.0078125-0.039063-0.023438-0.046875-0.046875v0.046875h-0.14062v-0.53125h0.14062z"/>
  </symbol>
  <symbol id="l" overflow="visible">
   <path d="m0.015625-0.375h0.10938l0.10938 0.25 0.078125-0.25h0.125l-0.15625 0.40625c-0.011719 0.039062-0.03125 0.070312-0.0625 0.09375-0.023438 0.019531-0.046875 0.03125-0.078125 0.03125h-0.078125v-0.09375h0.046875c0.019531 0 0.03125-0.0078125 0.03125-0.015625 0.007813 0 0.019531-0.011719 0.03125-0.03125z"/>
  </symbol>
  <symbol id="k" overflow="visible">
   <path d="m0.0625-0.51562h0.125v0.51562h-0.125z"/>
  </symbol>
  <symbol id="a" overflow="visible">
   <path d="m0.23438-0.29688c-0.03125 0-0.054687 0.011719-0.0625 0.03125-0.011719 0.011719-0.015625 0.039063-0.015625 0.078125 0 0.042969 0.003906 0.074219 0.015625 0.09375 0.007813 0.011719 0.03125 0.015625 0.0625 0.015625s0.050781-0.0039062 0.0625-0.015625c0.019531-0.019531 0.03125-0.050781 0.03125-0.09375 0-0.039062-0.011719-0.066406-0.03125-0.078125-0.011719-0.019531-0.03125-0.03125-0.0625-0.03125zm0-0.09375c0.0625 0 0.10938 0.023437 0.14062 0.0625 0.039062 0.03125 0.0625 0.078125 0.0625 0.14062s-0.023438 0.11719-0.0625 0.15625c-0.03125 0.03125-0.078125 0.046875-0.14062 0.046875s-0.11719-0.015625-0.15625-0.046875c-0.03125-0.039062-0.046875-0.09375-0.046875-0.15625s0.015625-0.10938 0.046875-0.14062c0.039063-0.039063 0.09375-0.0625 0.15625-0.0625z"/>
  </symbol>
  <symbol id="h" overflow="visible">
   <path d="m0.4375-0.23438v0.23438h-0.125v-0.17188-0.078125c0-0.007812-0.007812-0.015625-0.015625-0.015625 0-0.007813-0.007813-0.015625-0.015625-0.015625 0-0.007812-0.007812-0.015625-0.015625-0.015625-0.023437 0-0.042969 0.011719-0.0625 0.03125-0.011719 0.023437-0.015625 0.046875-0.015625 0.078125v0.1875h-0.14062v-0.375h0.14062v0.046875c0.007812-0.019531 0.023438-0.035156 0.046875-0.046875 0.019531-0.007812 0.039063-0.015625 0.0625-0.015625 0.050781 0 0.085937 0.015625 0.10938 0.046875 0.019531 0.03125 0.03125 0.070312 0.03125 0.10938z"/>
  </symbol>
  <symbol id="g" overflow="visible">
   <path d="m0.046875-0.375h0.14062v0.375h-0.14062zm0-0.15625h0.14062v0.09375h-0.14062z"/>
  </symbol>
  <symbol id="f" overflow="visible">
   <path d="m0.35938-0.375v0.10938c-0.03125-0.019531-0.0625-0.03125-0.09375-0.03125h-0.0625-0.046875c-0.011719 0-0.015625 0.011719-0.015625 0.03125 0 0 0.003906 0.007813 0.015625 0.015625 0.007812 0.011719 0.023438 0.015625 0.046875 0.015625h0.03125c0.050781 0 0.085937 0.011719 0.10938 0.03125 0.019531 0.023437 0.03125 0.054687 0.03125 0.09375 0 0.042969-0.015625 0.074219-0.046875 0.09375-0.023437 0.019531-0.0625 0.03125-0.125 0.03125-0.03125 0-0.058594-0.0078125-0.078125-0.015625-0.023438 0-0.046875-0.0039062-0.078125-0.015625v-0.09375c0.019531 0.011719 0.039062 0.023438 0.0625 0.03125h0.078125 0.0625c0.007812-0.0078125 0.015625-0.019531 0.015625-0.03125 0-0.007813-0.007813-0.015625-0.015625-0.015625-0.011719-0.007812-0.027344-0.019531-0.046875-0.03125h-0.015625c-0.0625 0-0.10547-0.007812-0.125-0.03125-0.023438-0.019531-0.03125-0.046875-0.03125-0.078125 0-0.039063 0.015625-0.070313 0.046875-0.09375 0.03125-0.019531 0.070313-0.03125 0.125-0.03125 0.019531 0 0.039063 0.007813 0.0625 0.015625h0.09375z"/>
  </symbol>
  <symbol id="w" overflow="visible">
   <path d="m0.0625-0.51562h0.17188l0.10938 0.28125 0.125-0.28125h0.15625v0.51562h-0.125v-0.375l-0.10938 0.28125h-0.09375l-0.10938-0.28125v0.375h-0.125z"/>
  </symbol>
  <symbol id="v" overflow="visible">
   <path d="m0.046875-0.53125h0.14062v0.53125h-0.14062z"/>
  </symbol>
  <symbol id="j" overflow="visible">
   <path d="m0.046875-0.53125h0.14062v0.29688l0.125-0.14062h0.14062l-0.1875 0.17188 0.21875 0.20312h-0.15625l-0.14062-0.15625v0.15625h-0.14062z"/>
  </symbol>
  <symbol id="i" overflow="visible">
   <path d="m0.046875-0.15625v-0.21875h0.125v0.03125 0.078125 0.0625 0.0625c0.007813 0.011719 0.015625 0.023437 0.015625 0.03125 0 0.011719 0.003906 0.015625 0.015625 0.015625h0.03125c0.019531 0 0.035156-0.0039062 0.046875-0.015625 0.019531-0.019531 0.03125-0.046875 0.03125-0.078125v-0.1875h0.125v0.375h-0.125v-0.046875c-0.023438 0.023438-0.042969 0.039062-0.0625 0.046875-0.011719 0.0078125-0.03125 0.015625-0.0625 0.015625-0.042969 0-0.078125-0.015625-0.10938-0.046875-0.023438-0.03125-0.03125-0.070312-0.03125-0.125z"/>
  </symbol>
  <symbol id="u" overflow="visible">
   <path d="m0.29688-0.53125v0.09375h-0.0625-0.03125c-0.011719 0-0.015625 0.011719-0.015625 0.03125v0.03125h0.10938v0.078125h-0.10938v0.29688h-0.10938v-0.29688h-0.0625v-0.078125h0.0625v-0.03125c0-0.039062 0.0078125-0.070312 0.03125-0.09375 0.019531-0.019531 0.054687-0.03125 0.10938-0.03125z"/>
  </symbol>
  <symbol id="t" overflow="visible">
   <path d="m0.40625-0.3125c0.019531-0.019531 0.039062-0.035156 0.0625-0.046875 0.019531-0.019531 0.039062-0.03125 0.0625-0.03125 0.039062 0 0.070312 0.015625 0.09375 0.046875 0.03125 0.03125 0.046875 0.070312 0.046875 0.10938v0.23438h-0.125v-0.1875-0.015625-0.015625c0-0.03125-0.007813-0.050781-0.015625-0.0625-0.011719-0.007812-0.023438-0.015625-0.03125-0.015625-0.023438 0-0.042969 0.011719-0.0625 0.03125-0.011719 0.023437-0.015625 0.046875-0.015625 0.078125v0.1875h-0.125v-0.1875c0-0.050781-0.007813-0.082031-0.015625-0.09375 0-0.007812-0.011719-0.015625-0.03125-0.015625-0.023438 0-0.039062 0.011719-0.046875 0.03125-0.011719 0.023437-0.015625 0.046875-0.015625 0.078125v0.1875h-0.14062v-0.375h0.14062v0.046875c0.007812-0.019531 0.023438-0.035156 0.046875-0.046875 0.019531-0.007812 0.039063-0.015625 0.0625-0.015625 0.019531 0 0.039063 0.011719 0.0625 0.03125 0.019531 0.011719 0.035156 0.027344 0.046875 0.046875z"/>
  </symbol>
  <symbol id="s" overflow="visible">
   <path d="m0.4375-0.23438v0.23438h-0.125v-0.17188-0.078125c0-0.007812-0.007812-0.015625-0.015625-0.015625 0-0.007813-0.007813-0.015625-0.015625-0.015625 0-0.007812-0.007812-0.015625-0.015625-0.015625-0.023437 0-0.042969 0.011719-0.0625 0.03125-0.011719 0.023437-0.015625 0.046875-0.015625 0.078125v0.1875h-0.14062v-0.53125h0.14062v0.20312c0.007812-0.019531 0.023438-0.035156 0.046875-0.046875 0.019531-0.007812 0.039063-0.015625 0.0625-0.015625 0.050781 0 0.085937 0.015625 0.10938 0.046875 0.019531 0.03125 0.03125 0.070312 0.03125 0.10938z"/>
  </symbol>
  <symbol id="r" overflow="visible">
   <path d="m0.0625-0.51562h0.14062l0.1875 0.35938v-0.35938h0.125v0.51562h-0.14062l-0.1875-0.34375v0.34375h-0.125z"/>
  </symbol>
  <symbol id="q" overflow="visible">
   <path d="m0.0625-0.51562h0.21875c0.0625 0 0.10938 0.015625 0.14062 0.046875 0.039063 0.03125 0.0625 0.078125 0.0625 0.14062 0 0.042969-0.023437 0.078125-0.0625 0.10938-0.03125 0.03125-0.078125 0.046875-0.14062 0.046875h-0.09375v0.17188h-0.125zm0.125 0.10938v0.14062h0.078125c0.019531 0 0.035156-0.003906 0.046875-0.015625 0.019531-0.007812 0.03125-0.023438 0.03125-0.046875 0-0.03125-0.011719-0.050781-0.03125-0.0625-0.011719-0.007813-0.027344-0.015625-0.046875-0.015625z"/>
  </symbol>
  <symbol id="p" overflow="visible">
   <path d="m0.046875-0.375h0.14062v0.35938c0 0.050781-0.015625 0.09375-0.046875 0.125-0.023437 0.03125-0.058594 0.046875-0.10938 0.046875h-0.046875v-0.09375h0.015625c0.019531 0 0.03125-0.0078125 0.03125-0.015625 0.0078125 0 0.015625-0.023438 0.015625-0.0625zm0-0.15625h0.14062v0.09375h-0.14062z"/>
  </symbol>
  <symbol id="o" overflow="visible">
   <path d="m0.375-0.375v0.10938c-0.03125-0.007813-0.054688-0.015625-0.0625-0.015625-0.011719-0.007812-0.027344-0.015625-0.046875-0.015625-0.03125 0-0.058594 0.011719-0.078125 0.03125-0.023438 0.023437-0.03125 0.046875-0.03125 0.078125s0.007812 0.058594 0.03125 0.078125c0.019531 0.023438 0.046875 0.03125 0.078125 0.03125h0.046875c0.019531-0.0078125 0.039062-0.019531 0.0625-0.03125v0.09375c-0.03125 0.011719-0.058594 0.015625-0.078125 0.015625-0.011719 0.0078125-0.027344 0.015625-0.046875 0.015625-0.074219 0-0.13281-0.015625-0.17188-0.046875-0.03125-0.039062-0.046875-0.09375-0.046875-0.15625s0.015625-0.10938 0.046875-0.14062c0.039063-0.039063 0.097656-0.0625 0.17188-0.0625 0.019531 0 0.035156 0.007813 0.046875 0.015625h0.078125z"/>
  </symbol>
 </defs>
 <g>
  <path d="m350.07 0c77.227 0 147.25 31.336 197.99 82.078 50.605 50.605 81.941 120.62 81.941 197.99 0 77.227-31.336 147.25-81.941 197.99-50.746 50.605-120.76 81.941-197.99 81.941-77.367 0-147.38-31.336-197.99-81.941-50.746-50.746-82.078-120.76-82.078-197.99 0-77.367 31.336-147.38 82.078-197.99 50.605-50.746 120.62-82.078 197.99-82.078zm167.07 113c-16.637-16.777-35.77-30.918-56.707-42.012 3.3281 5.1289 6.5156 10.398 9.5664 15.945 24.816 44.922 41.039 104.82 43.953 171.23h71.402c-5.1289-56.57-30.227-107.31-68.215-145.16zm0 334.14c37.988-37.988 63.086-88.734 68.215-145.3h-71.402c-2.9102 66.414-19.133 126.31-43.953 171.23-3.0508 5.5469-6.2383 10.953-9.5664 15.945 20.938-11.094 40.07-25.234 56.707-41.871zm-334.14 0c16.637 16.637 35.633 30.781 56.707 41.871-3.3281-4.9922-6.5156-10.398-9.5664-15.945-24.816-44.922-41.039-104.82-44.09-171.23h-71.266c5.1289 56.57 30.227 107.31 68.215 145.3zm0-334.14c-37.988 37.852-63.086 88.598-68.215 145.16h71.266c3.0508-66.414 19.273-126.31 44.09-171.23 3.0508-5.5469 6.2383-10.816 9.5664-15.945-21.074 11.094-40.07 25.234-56.707 42.012zm188.84-65.164v210.33h98.441c-2.9102-58.785-17.055-111.34-38.543-150.16-16.637-30.227-37.297-51.578-59.895-60.172zm0 254v210.33c22.602-8.5977 43.258-29.949 59.895-60.035 21.492-38.961 35.633-91.508 38.543-150.29h-98.441zm-43.676 210.33v-210.33h-98.301c2.7734 58.785 17.055 111.34 38.543 150.29 16.637 30.086 37.297 51.438 59.758 60.035zm0-254v-210.33c-22.461 8.5977-43.121 29.949-59.758 60.172-21.492 38.82-35.77 91.371-38.543 150.16z" fill-rule="evenodd"/>
  <use x="70" y="562.078125" xlink:href="#x"/>
  <use x="70.507812" y="562.078125" xlink:href="#e"/>
  <use x="70.851562" y="562.078125" xlink:href="#d"/>
  <use x="71.320312" y="562.078125" xlink:href="#c"/>
  <use x="71.789062" y="562.078125" xlink:href="#b"/>
  <use x="72.121094" y="562.078125" xlink:href="#d"/>
  <use x="72.589844" y="562.078125" xlink:href="#n"/>
  <use x="73.328125" y="562.078125" xlink:href="#m"/>
  <use x="73.824219" y="562.078125" xlink:href="#l"/>
  <use x="74.515625" y="562.078125" xlink:href="#k"/>
  <use x="74.773438" y="562.078125" xlink:href="#a"/>
  <use x="75.25" y="562.078125" xlink:href="#c"/>
  <use x="75.71875" y="562.078125" xlink:href="#h"/>
  <use x="76.210938" y="562.078125" xlink:href="#h"/>
  <use x="76.707031" y="562.078125" xlink:href="#g"/>
  <use x="76.945312" y="562.078125" xlink:href="#f"/>
  <use x="77.597656" y="562.078125" xlink:href="#w"/>
  <use x="78.289063" y="562.078125" xlink:href="#c"/>
  <use x="78.753906" y="562.078125" xlink:href="#v"/>
  <use x="78.992188" y="562.078125" xlink:href="#g"/>
  <use x="79.230469" y="562.078125" xlink:href="#j"/>
  <use x="79.691406" y="562.078125" xlink:href="#a"/>
  <use x="80.167969" y="562.078125" xlink:href="#i"/>
  <use x="80.660156" y="562.078125" xlink:href="#b"/>
  <use x="80.992188" y="562.078125" xlink:href="#f"/>
  <use x="81.40625" y="562.078125" xlink:href="#c"/>
  <use x="81.875" y="562.078125" xlink:href="#j"/>
  <use x="82.335938" y="562.078125" xlink:href="#g"/>
  <use x="82.570312" y="562.078125" xlink:href="#f"/>
  <use x="70" y="562.773438" xlink:href="#u"/>
  <use x="70.300781" y="562.773438" xlink:href="#e"/>
  <use x="70.644531" y="562.773438" xlink:href="#a"/>
  <use x="71.121094" y="562.773438" xlink:href="#t"/>
  <use x="72.082031" y="562.773438" xlink:href="#b"/>
  <use x="72.414062" y="562.773438" xlink:href="#s"/>
  <use x="72.910156" y="562.773438" xlink:href="#d"/>
  <use x="73.621094" y="562.773438" xlink:href="#r"/>
  <use x="74.199219" y="562.773438" xlink:href="#a"/>
  <use x="74.675781" y="562.773438" xlink:href="#i"/>
  <use x="75.167969" y="562.773438" xlink:href="#h"/>
  <use x="75.90625" y="562.773438" xlink:href="#q"/>
  <use x="76.414063" y="562.773438" xlink:href="#e"/>
  <use x="76.753906" y="562.773438" xlink:href="#a"/>
  <use x="77.230469" y="562.773438" xlink:href="#p"/>
  <use x="77.46875" y="562.773438" xlink:href="#d"/>
  <use x="77.9375" y="562.773438" xlink:href="#o"/>
  <use x="78.351562" y="562.773438" xlink:href="#b"/>
 </g>
</svg>
